<?xml version="1.0" encoding="utf-8"?>
<!-- Generator: Adobe Illustrator 24.0.1, SVG Export Plug-In . SVG Version: 6.00 Build 0)  -->
<svg version="1.1" id="Layer_1" xmlns="http://www.w3.org/2000/svg" xmlns:xlink="http://www.w3.org/1999/xlink" x="0px" y="0px"
	 viewBox="0 0 360 360" style="enable-background:new 0 0 360 360;" xml:space="preserve">
<style type="text/css">
	.st0{fill:#818181;}
</style>
<g>
	<path class="st0" d="M295.85,248.5v107.58H64.15V248.5c0-37.88,18.21-71.54,46.34-92.68c15.82,21.15,41.1,34.76,69.51,34.76
		s53.7-13.7,69.51-34.76c4.41,3.31,8.55,6.9,12.41,10.76C282.89,187.54,295.85,216.5,295.85,248.5z"/>
	<path class="st0" d="M262.75,86.67c0,18.67-6.16,35.86-16.55,49.65c-15.08,20.14-39.17,33.1-66.2,33.1s-51.12-12.96-66.2-33.1
		c-10.39-13.79-16.55-30.99-16.55-49.65c0-45.7,37.06-82.75,82.75-82.75S262.75,40.97,262.75,86.67z"/>
</g>
</svg>
