<?xml version="1.0" encoding="utf-8"?>
<!-- Generator: Adobe Illustrator 23.1.0, SVG Export Plug-In . SVG Version: 6.00 Build 0)  -->
<svg version="1.1" id="Layer_1" xmlns="http://www.w3.org/2000/svg" xmlns:xlink="http://www.w3.org/1999/xlink" x="0px" y="0px"
	 viewBox="0 0 264 392" style="enable-background:new 0 0 264 392;" xml:space="preserve">
<style type="text/css">
	.st0{fill:#808080;}
</style>
<path class="st0" d="M257.5,270.5v117H5.5v-117c0-41.2,19.8-77.8,50.4-100.8c17.2,23,44.7,37.8,75.6,37.8s58.4-14.9,75.6-37.8
	c4.8,3.6,9.3,7.5,13.5,11.7C243.4,204.2,257.5,235.7,257.5,270.5z"/>
<path class="st0" d="M221.5,94.5c0,20.3-6.7,39-18,54c-16.4,21.9-42.6,36-72,36s-55.6-14.1-72-36c-11.3-15-18-33.7-18-54
	c0-49.7,40.3-90,90-90S221.5,44.8,221.5,94.5z"/>
</svg>
