<?xml version="1.0" encoding="utf-8"?>
<!-- Generator: Adobe Illustrator 23.1.0, SVG Export Plug-In . SVG Version: 6.00 Build 0)  -->
<svg version="1.1" id="Layer_2" xmlns="http://www.w3.org/2000/svg" xmlns:xlink="http://www.w3.org/1999/xlink" x="0px" y="0px"
	 viewBox="0 0 365 94.4" style="enable-background:new 0 0 365 94.4;" xml:space="preserve">
<style type="text/css">
	.st0{fill:#808080;}
</style>
<g>
	<path class="st0" d="M139,90.6c5.3,0,11.2-2,14.6-4.9c0.5-0.5,0.9-1.1,0.9-1.8c0-0.8-0.4-1.4-1.1-1.6c-0.9-0.2-2.1-0.7-3.1-1.2
		c-2.7-1.4-4.1-4.7-4.1-9.5l1.4-39.1c-1.3-1.2-3.4-1.8-4.9-1.8c-2.2,0-4,0.8-5.9,1.9c-4.1,2.6-11.5,5.3-16.7,6
		c-2,0.2-2.6,1.6-2.6,2.8c0,0.8,0.5,1.8,1.1,2.1c5.5,0,8.2,2.1,8.2,6.7l-0.2,10c-0.1,8.8-1.8,17.9-10.5,17.9
		c-8.1,0-8.7-7.3-8.7-13.3l1.1-32.4c-1.1-1.2-3.3-1.8-4.9-1.8c-2.1,0-3.9,0.8-5.8,1.9c-4.1,2.6-11.3,5.3-16.6,6
		c-2,0.2-2.6,1.6-2.6,2.8c0,0.8,0.4,1.8,1.2,2.1c5.5,0,8.2,2.1,8.2,6.7L87.3,70c0,12.5,4.7,21.2,18.2,21.2c8.4,0,12.7,0.9,23.2-0.2
		L139,90.6z"/>
	<path class="st0" d="M113.8,12c-0.2,4.9-4.3,8.8-9.3,8.9c-6.8,0.1-9.5-3.3-9.3-8.7c0.2-5,4.4-8.9,9.4-9C111.4,3,114,6.6,113.8,12z"
		/>
	<path class="st0" d="M139.8,11.3c0,6.1-3.6,9.7-9.9,9.7c-6.2,0-8.9-3.2-8.8-8.3c0.1-5.3,4.6-9.5,9.9-9.5
		C137,3.2,139.8,6.4,139.8,11.3z"/>
</g>
<path class="st0" d="M52.5,30.4c13.7,0,18.9,8.8,18.9,21.4L70.5,74c0,5.7,0.4,10.3,5,11.3c1.1,0.2,1.8,0.9,1.8,2.1
	c0,1.4-1.1,2.3-2.1,2.3h-31c-1.2,0-1.9-0.7-1.9-2c0-1.2,0.7-2,1.8-2.4c5.7-1.9,6.2-7.6,6.4-13.2L51,57c0-5.8-0.7-13.9-8.8-13.9
	c-8.8,0-10.2,9.6-10.6,18.5l-0.5,13.8c0,5.3,0.8,9,5,9.9c1.1,0.2,1.7,0.9,1.7,2.1c0,1.4-1.1,2.3-2.1,2.3h-31c-1.1,0-1.9-0.7-1.9-2
	c0-1.2,0.7-2,1.8-2.4c5.6-2.3,6.3-7.7,6.5-13.2L12,50.3c0-4.5-2.1-6.8-7.8-6.8c-0.6-0.5-0.9-1.2-0.9-2.1c0-1.2,0.6-2.6,2.6-2.9
	c5.3-0.7,12-3.4,16-5.8c1.9-1.2,3.7-2.1,5.9-2.1c1.7,0,3.1,0.6,4.3,1.8l-0.7,12c0,0.4,0.1,0.5,0.2,0.5c0.1,0,0.2-0.1,0.4-0.4
	C36.1,35.5,44,30.4,52.5,30.4z"/>
<path class="st0" d="M219.5,48.6c0,4.3-2.4,8.1-8.6,9.5c-7.2,1.8-27.7,4.3-32.1,4.3c-0.5,0-0.7,0.2-0.7,0.8c0.6,1.9,1.3,3.6,2.6,5.3
	c4.2,5.7,11.2,8.6,18.5,8.6c6.4,0,12.8-2.4,17.7-6.8c0.4-0.5,0.9-0.7,1.5-0.7c0.8,0,1.8,0.6,1.8,1.7c0,0.2,0,0.6-0.1,1
	c-4.5,11.4-17.2,18.9-30.6,18.9c-16-0.1-28.9-10.2-28.9-27.3c0-19.6,16-33.4,34.8-33.4C210.2,30.4,219.5,38.9,219.5,48.6z M176,54.3
	c0,0.8,0.1,1.5,0.2,1.9c0.1,0.5,0.4,0.8,1,0.8c2.8,0,24.1-3.8,24.1-5.1c0-3-3.9-12.1-13.2-12.1C180.2,39.8,176,46.5,176,54.3z"/>
<path class="st0" d="M275.2,43.1c0,2.6-0.5,5.8-0.6,8.3c0,1.1-0.7,1.7-1.9,1.7c-0.6,0-1.3-0.5-1.7-1.2c-4.9-7.4-14-12.5-22.3-12.5
	c-4,0-6.5,1.8-6.5,4.5c0,3.7,7.2,5.8,13.8,7.8c8.2,2.6,15.8,5.6,19,12.2c0.9,2.1,1.3,4.5,1.3,6.9c0,3.3-0.8,6.4-2.7,9
	c-5.2,7.6-16.6,11.2-27,11.2C231,91,228,85.1,228,76.2c0-2.1,0-5.2,0.4-7.7c0-1.2,0.9-1.7,1.9-1.7c0.8,0,1.3,0.4,1.7,0.9
	c5.7,9,16.7,14.3,25.4,14.3c3.9,0,6.3-1.7,6.3-4.4c0-4.2-6.5-6.2-13.4-8.3c-7.8-2.5-15.8-5.7-19-12.5c-1-2.1-1.5-4.5-1.5-6.9
	c0-3.1,1-6.2,2.7-8.9c4.9-7,15.3-10.7,25.3-10.7C272.8,30.4,275.2,35.6,275.2,43.1z"/>
<path class="st0" d="M309.2,75.5c0,3.9,0.4,9.1,5.3,9.7c1.1,0.1,1.7,1.1,1.7,2.1c0,1.4-0.8,2.3-2.1,2.3h-31.4c-1.1,0-1.8-0.7-1.9-2
	c0-1.2,0.7-2,1.8-2.4c5.7-1.7,6.5-8,6.7-13.1l1.7-49.2c0-4.5-2.3-6.8-7.8-6.8c-0.7-0.4-1.2-1.2-1.2-2.3c0-1.1,0.6-2.4,2.6-2.6
	c5.3-0.8,11.9-3.6,15.9-5.9c2-1.2,3.8-2.1,5.9-2.1c1.7,0,3.8,0.6,5,1.8L309.2,75.5z"/>
<path class="st0" d="M336.3,49.7c0-4.6-2.6-6.8-8.3-6.8c-0.7-0.4-1.2-1.3-1.2-2.1c0-1.2,0.7-2.6,2.6-2.9c5.5-0.7,12.5-3.7,16.7-6.1
	c1.9-1.1,3.7-1.9,5.8-1.9c1.7,0,3.9,0.6,5,1.8l-1.5,43.6c0,4,0.4,8.8,5.5,9.9c1.1,0.1,1.7,0.9,1.7,2.1c0,1.4-1.1,2.3-2.1,2.3h-31.5
	c-0.9,0-1.8-0.7-1.8-2c0-1.2,0.7-2,1.7-2.4c5.7-1.5,6.5-6.5,6.8-13.2L336.3,49.7z"/>
</svg>
