<?xml version="1.0" encoding="utf-8"?>
<!-- Generator: Adobe Illustrator 24.0.1, SVG Export Plug-In . SVG Version: 6.00 Build 0)  -->
<svg version="1.1" id="Layer_1" xmlns="http://www.w3.org/2000/svg" xmlns:xlink="http://www.w3.org/1999/xlink" x="0px" y="0px"
	 viewBox="0 0 360 360" style="enable-background:new 0 0 360 360;" xml:space="preserve">
<style type="text/css">
	.st0{fill:#828282;}
</style>
<g>
	<g>
		<path class="st0" d="M136.3,150.35c5.3,0,11.2-2,14.6-4.9c0.5-0.5,0.9-1.1,0.9-1.8c0-0.8-0.4-1.4-1.1-1.6
			c-0.9-0.2-2.1-0.7-3.1-1.2c-2.7-1.4-4.1-4.7-4.1-9.5l1.4-39.1c-1.3-1.2-3.4-1.8-4.9-1.8c-2.2,0-4,0.8-5.9,1.9
			c-4.1,2.6-11.5,5.3-16.7,6c-2,0.2-2.6,1.6-2.6,2.8c0,0.8,0.5,1.8,1.1,2.1c5.5,0,8.2,2.1,8.2,6.7l-0.2,10
			c-0.1,8.8-1.8,17.9-10.5,17.9c-8.1,0-8.7-7.3-8.7-13.3l1.1-32.4c-1.1-1.2-3.3-1.8-4.9-1.8c-2.1,0-3.9,0.8-5.8,1.9
			c-4.1,2.6-11.3,5.3-16.6,6c-2,0.2-2.6,1.6-2.6,2.8c0,0.8,0.4,1.8,1.2,2.1c5.5,0,8.2,2.1,8.2,6.7l-0.7,19.9
			c0,12.5,4.7,21.2,18.2,21.2c8.4,0,12.7,0.9,23.2-0.2L136.3,150.35z"/>
		<path class="st0" d="M111.1,71.75c-0.2,4.9-4.3,8.8-9.3,8.9c-6.8,0.1-9.5-3.3-9.3-8.7c0.2-5,4.4-8.9,9.4-9
			C108.7,62.75,111.3,66.35,111.1,71.75z"/>
		<path class="st0" d="M137.1,71.05c0,6.1-3.6,9.7-9.9,9.7c-6.2,0-8.9-3.2-8.8-8.3c0.1-5.3,4.6-9.5,9.9-9.5
			C134.3,62.95,137.1,66.15,137.1,71.05z"/>
	</g>
	<path class="st0" d="M49.8,90.15c13.7,0,18.9,8.8,18.9,21.4l-0.9,22.2c0,5.7,0.4,10.3,5,11.3c1.1,0.2,1.8,0.9,1.8,2.1
		c0,1.4-1.1,2.3-2.1,2.3h-31c-1.2,0-1.9-0.7-1.9-2c0-1.2,0.7-2,1.8-2.4c5.7-1.9,6.2-7.6,6.4-13.2l0.5-15.1c0-5.8-0.7-13.9-8.8-13.9
		c-8.8,0-10.2,9.6-10.6,18.5l-0.5,13.8c0,5.3,0.8,9,5,9.9c1.1,0.2,1.7,0.9,1.7,2.1c0,1.4-1.1,2.3-2.1,2.3H2c-1.1,0-1.9-0.7-1.9-2
		c0-1.2,0.7-2,1.8-2.4c5.6-2.3,6.3-7.7,6.5-13.2l0.9-21.8c0-4.5-2.1-6.8-7.8-6.8c-0.6-0.5-0.9-1.2-0.9-2.1c0-1.2,0.6-2.6,2.6-2.9
		c5.3-0.7,12-3.4,16-5.8c1.9-1.2,3.7-2.1,5.9-2.1c1.7,0,3.1,0.6,4.3,1.8l-0.7,12c0,0.4,0.1,0.5,0.2,0.5s0.2-0.1,0.4-0.4
		C33.4,95.25,41.3,90.15,49.8,90.15z"/>
	<path class="st0" d="M216.8,108.35c0,4.3-2.4,8.1-8.6,9.5c-7.2,1.8-27.7,4.3-32.1,4.3c-0.5,0-0.7,0.2-0.7,0.8
		c0.6,1.9,1.3,3.6,2.6,5.3c4.2,5.7,11.2,8.6,18.5,8.6c6.4,0,12.8-2.4,17.7-6.8c0.4-0.5,0.9-0.7,1.5-0.7c0.8,0,1.8,0.6,1.8,1.7
		c0,0.2,0,0.6-0.1,1c-4.5,11.4-17.2,18.9-30.6,18.9c-16-0.1-28.9-10.2-28.9-27.3c0-19.6,16-33.4,34.8-33.4
		C207.5,90.15,216.8,98.65,216.8,108.35z M173.3,114.05c0,0.8,0.1,1.5,0.2,1.9c0.1,0.5,0.4,0.8,1,0.8c2.8,0,24.1-3.8,24.1-5.1
		c0-3-3.9-12.1-13.2-12.1C177.5,99.55,173.3,106.25,173.3,114.05z"/>
	<path class="st0" d="M272.5,102.85c0,2.6-0.5,5.8-0.6,8.3c0,1.1-0.7,1.7-1.9,1.7c-0.6,0-1.3-0.5-1.7-1.2
		c-4.9-7.4-14-12.5-22.3-12.5c-4,0-6.5,1.8-6.5,4.5c0,3.7,7.2,5.8,13.8,7.8c8.2,2.6,15.8,5.6,19,12.2c0.9,2.1,1.3,4.5,1.3,6.9
		c0,3.3-0.8,6.4-2.7,9c-5.2,7.6-16.6,11.2-27,11.2c-15.6,0-18.6-5.9-18.6-14.8c0-2.1,0-5.2,0.4-7.7c0-1.2,0.9-1.7,1.9-1.7
		c0.8,0,1.3,0.4,1.7,0.9c5.7,9,16.7,14.3,25.4,14.3c3.9,0,6.3-1.7,6.3-4.4c0-4.2-6.5-6.2-13.4-8.3c-7.8-2.5-15.8-5.7-19-12.5
		c-1-2.1-1.5-4.5-1.5-6.9c0-3.1,1-6.2,2.7-8.9c4.9-7,15.3-10.7,25.3-10.7C270.1,90.15,272.5,95.35,272.5,102.85z"/>
	<path class="st0" d="M306.5,135.25c0,3.9,0.4,9.1,5.3,9.7c1.1,0.1,1.7,1.1,1.7,2.1c0,1.4-0.8,2.3-2.1,2.3H280c-1.1,0-1.8-0.7-1.9-2
		c0-1.2,0.7-2,1.8-2.4c5.7-1.7,6.5-8,6.7-13.1l1.7-49.2c0-4.5-2.3-6.8-7.8-6.8c-0.7-0.4-1.2-1.2-1.2-2.3s0.6-2.4,2.6-2.6
		c5.3-0.8,11.9-3.6,15.9-5.9c2-1.2,3.8-2.1,5.9-2.1c1.7,0,3.8,0.6,5,1.8L306.5,135.25z"/>
	<path class="st0" d="M333.6,109.45c0-4.6-2.6-6.8-8.3-6.8c-0.7-0.4-1.2-1.3-1.2-2.1c0-1.2,0.7-2.6,2.6-2.9
		c5.5-0.7,12.5-3.7,16.7-6.1c1.9-1.1,3.7-1.9,5.8-1.9c1.7,0,3.9,0.6,5,1.8l-1.5,43.6c0,4,0.4,8.8,5.5,9.9c1.1,0.1,1.7,0.9,1.7,2.1
		c0,1.4-1.1,2.3-2.1,2.3h-31.5c-0.9,0-1.8-0.7-1.8-2c0-1.2,0.7-2,1.7-2.4c5.7-1.5,6.5-6.5,6.8-13.2L333.6,109.45z"/>
</g>
</svg>
