<?xml version="1.0" encoding="utf-8"?>
<!-- Generator: Adobe Illustrator 24.0.1, SVG Export Plug-In . SVG Version: 6.00 Build 0)  -->
<svg version="1.1" id="Layer_1" xmlns="http://www.w3.org/2000/svg" xmlns:xlink="http://www.w3.org/1999/xlink" x="0px" y="0px"
	 viewBox="0 0 360 360" style="enable-background:new 0 0 360 360;" xml:space="preserve">
<style type="text/css">
	.st0{fill:#818181;}
	.st1{fill:none;}
</style>
<g>
	<path class="st0" d="M60.53,6.69v299.64h170.2V6.69H60.53z M196.36,285.03c0,1.46-1.19,2.65-2.65,2.65H93.89
		c-1.46,0-2.65-1.19-2.65-2.65v-6.76c0-1.46,1.19-2.65,2.65-2.65h99.91c1.46,0,2.65,1.19,2.65,2.65v6.76H196.36z M196.36,100.84
		c0,1.46-1.19,2.65-2.65,2.65H93.89c-1.46,0-2.65-1.19-2.65-2.65v-6.86c0-1.46,1.19-2.65,2.65-2.65h99.91
		c1.46,0,2.65,1.19,2.65,2.65v6.86H196.36z M208.34,77.99c0,1.46-1.19,2.65-2.65,2.65H93.89c-1.46,0-2.65-1.19-2.65-2.65v-6.86
		c0-1.46,1.19-2.65,2.65-2.65h111.79c1.46,0,2.65,1.19,2.65,2.65V77.99z M218.3,55.23c0,1.46-1.19,2.65-2.65,2.65H93.89
		c-1.46,0-2.65-1.19-2.65-2.65v-6.86c0-1.46,1.19-2.65,2.65-2.65h121.76c1.46,0,2.65,1.19,2.65,2.65V55.23z"/>
	<path class="st0" d="M299.47,58.06v198.63c0,21.76-14.08,40.31-33.73,46.89V11.08C285.39,17.84,299.47,36.31,299.47,58.06z"/>
	<path class="st1" d="M218.3,48.37v6.86c0,1.46-1.19,2.65-2.65,2.65H93.89c-1.46,0-2.65-1.19-2.65-2.65v-6.86
		c0-1.46,1.19-2.65,2.65-2.65h121.76C217.11,45.72,218.3,46.91,218.3,48.37z"/>
	<path class="st1" d="M208.34,71.22v6.86c0,1.46-1.19,2.65-2.65,2.65H93.89c-1.46,0-2.65-1.19-2.65-2.65v-6.86
		c0-1.46,1.19-2.65,2.65-2.65h111.79C207.15,68.57,208.34,69.76,208.34,71.22z"/>
	<path class="st1" d="M196.36,93.98v6.86c0,1.46-1.19,2.65-2.65,2.65H93.89c-1.46,0-2.65-1.19-2.65-2.65v-6.86
		c0-1.46,1.19-2.65,2.65-2.65h99.91C195.17,91.33,196.36,92.52,196.36,93.98z"/>
	<path class="st1" d="M196.36,278.26v6.86c0,1.46-1.19,2.65-2.65,2.65H93.89c-1.46,0-2.65-1.19-2.65-2.65v-6.86
		c0-1.46,1.19-2.65,2.65-2.65h99.91C195.17,275.61,196.36,276.8,196.36,278.26z"/>
	<rect x="67.48" y="313.09" class="st0" width="12.07" height="40.22"/>
	<path class="st0" d="M257.24,9.34v294.24c-3.84,1.74-7.95,2.65-12.16,2.65h-6.67V6.69h6.67C249.29,6.69,253.4,7.6,257.24,9.34z"/>
</g>
</svg>
