<?xml version="1.0" encoding="utf-8"?>
<!-- Generator: Adobe Illustrator 23.1.0, SVG Export Plug-In . SVG Version: 6.00 Build 0)  -->
<svg version="1.1" id="Layer_1" xmlns="http://www.w3.org/2000/svg" xmlns:xlink="http://www.w3.org/1999/xlink" x="0px" y="0px"
	 viewBox="0 0 275 393" style="enable-background:new 0 0 275 393;" xml:space="preserve">
<style type="text/css">
	.st0{fill:#808080;}
	.st1{fill:none;}
</style>
<path class="st0" d="M6.8,8.9v327.8H193V8.9H6.8z M155.4,313.4c0,1.6-1.3,2.9-2.9,2.9H43.3c-1.6,0-2.9-1.3-2.9-2.9V306
	c0-1.6,1.3-2.9,2.9-2.9h109.3c1.6,0,2.9,1.3,2.9,2.9V313.4z M155.4,111.9c0,1.6-1.3,2.9-2.9,2.9H43.3c-1.6,0-2.9-1.3-2.9-2.9v-7.5
	c0-1.6,1.3-2.9,2.9-2.9h109.3c1.6,0,2.9,1.3,2.9,2.9V111.9z M168.5,86.9c0,1.6-1.3,2.9-2.9,2.9H43.3c-1.6,0-2.9-1.3-2.9-2.9v-7.5
	c0-1.6,1.3-2.9,2.9-2.9h122.3c1.6,0,2.9,1.3,2.9,2.9V86.9z M179.4,62c0,1.6-1.3,2.9-2.9,2.9H43.3c-1.6,0-2.9-1.3-2.9-2.9v-7.5
	c0-1.6,1.3-2.9,2.9-2.9h133.2c1.6,0,2.9,1.3,2.9,2.9V62z"/>
<path class="st0" d="M268.2,65.1v217.3c0,23.8-15.4,44.1-36.9,51.3v-320C252.8,21.1,268.2,41.3,268.2,65.1z"/>
<path class="st1" d="M179.4,54.5V62c0,1.6-1.3,2.9-2.9,2.9H43.3c-1.6,0-2.9-1.3-2.9-2.9v-7.5c0-1.6,1.3-2.9,2.9-2.9h133.2
	C178.1,51.6,179.4,52.9,179.4,54.5z"/>
<path class="st1" d="M168.5,79.5v7.5c0,1.6-1.3,2.9-2.9,2.9H43.3c-1.6,0-2.9-1.3-2.9-2.9v-7.5c0-1.6,1.3-2.9,2.9-2.9h122.3
	C167.2,76.6,168.5,77.9,168.5,79.5z"/>
<path class="st1" d="M155.4,104.4v7.5c0,1.6-1.3,2.9-2.9,2.9H43.3c-1.6,0-2.9-1.3-2.9-2.9v-7.5c0-1.6,1.3-2.9,2.9-2.9h109.3
	C154.1,101.5,155.4,102.8,155.4,104.4z"/>
<path class="st1" d="M155.4,306v7.5c0,1.6-1.3,2.9-2.9,2.9H43.3c-1.6,0-2.9-1.3-2.9-2.9V306c0-1.6,1.3-2.9,2.9-2.9h109.3
	C154.1,303.1,155.4,304.4,155.4,306z"/>
<rect x="14.4" y="344.1" class="st0" width="13.2" height="44"/>
<path class="st0" d="M222,11.8v321.9c-4.2,1.9-8.7,2.9-13.3,2.9h-7.3V8.9h7.3C213.3,8.9,217.8,9.9,222,11.8z"/>
</svg>
